<svg width="124mm" height="117mm" viewBox="0 0 124 117" xmlns="http://www.w3.org/2000/svg"><path d="M92.008 87.504c-7.721 0-14.088 6.231-14.088 14.088 0 7.722 6.231 14.089 14.088 14.089 7.722 0 14.089-6.232 14.089-14.089-.136-7.721-6.367-14.088-14.089-14.088zM5.987.67C3.007.67.567 3.108.567 6.089c0 2.98 2.44 5.418 5.42 5.418H16.96c.677 0 1.219.542 1.354 1.22l8.4 57.166c1.083 7.18 7.315 12.599 14.63 12.599h56.354c7.044 0 13.14-5.013 14.63-11.922l8.806-44.026c.542-2.845-1.355-5.69-4.335-6.232-.271 0-.678-.135-1.084-.135H30.37l-1.355-9.076C28.204 5.14 23.056.67 16.96.67H5.987zM33.34 30.619l73.825.34s3.742.34 2.722 4.422c-1.02 4.083-6.804 31.64-6.804 31.64s-1.021 3.402-4.423 4.082c-3.402.68-57.283 0-57.283 0-.051.018-1.711-.09-2.593-2.722-.918-2.737-5.444-37.762-5.444-37.762zm24.124 70.296c-.27-7.45-6.502-13.411-13.953-13.411-7.857.406-13.818 6.909-13.547 14.63.271 7.45 6.367 13.411 13.818 13.411h.27c7.723-.406 13.819-6.908 13.412-14.63z"/><path d="M96.694 42.903H74.41l-.17 14.373 18.37.012c.967-.082 1.726-.456 2.128-1.33zM41.59 42.78h22.284l.17 14.375-18.37.012c-.967-.082-1.726-.456-2.128-1.33z" stroke="#000" stroke-width=".265"/></svg>